<svg width="40" height="40" viewBox="0 0 40 40" fill="none" xmlns="http://www.w3.org/2000/svg">
    <circle cx="20" cy="20" r="20" fill="#F5F6FA" />
    <path fill-rule="evenodd" clip-rule="evenodd" d="M19.6667 11C15.4325 11 12 14.4325 12 18.6667C12 22.9009 15.4325 26.3333 19.6667 26.3333C21.4233 26.3333 23.0419 25.7426 24.3347 24.7489L27.2929 27.7071L27.3871 27.7903C27.7794 28.0953 28.3466 28.0676 28.7071 27.7071C29.0976 27.3166 29.0976 26.6834 28.7071 26.2929L25.7489 23.3347C26.7426 22.0419 27.3333 20.4233 27.3333 18.6667C27.3333 14.4325 23.9009 11 19.6667 11ZM23.756 22.5895C24.7329 21.5713 25.3333 20.1891 25.3333 18.6667C25.3333 15.5371 22.7963 13 19.6667 13C16.5371 13 14 15.5371 14 18.6667C14 21.7963 16.5371 24.3333 19.6667 24.3333C21.1891 24.3333 22.5713 23.7329 23.5895 22.756C23.6136 22.7255 23.6397 22.6961 23.6679 22.6679C23.6961 22.6397 23.7255 22.6136 23.756 22.5895Z" fill="#232873" />
</svg>